# xmcd
#
# Track frame offsets:
#	150
#	19527
#	35983
#	51873
#	65688
#	79874
#	92331
#	107908
#	118989
#	134564
#	148937
#	163991
#	177994
#	195976
#	209796
#	224024
#
# Disc length: 3166 seconds
#
# Revision: 0
# Processed by: cddbd v1.5.1PL2 Copyright (c) Steve Scherf et al.
# Submitted via: dBpowerAMP V4.0
#
DISCID=030c5c10
DTITLE=Alfi Nipic in njegovi muzikanti - Vse moje misli
DYEAR=1900
DGENRE=
TTITLE0=Vse moje misli
TTITLE1=Samo enkrat se zivi
TTITLE2=V tihem mirnem gozdu
TTITLE3=Gremo po nevesto
TTITLE4=Mladi kot smo nocoj
TTITLE5=Ostal bom muzikant
TTITLE6=Moja sanjarjenja
TTITLE7=Nazaj v planinski raj
TTITLE8=Za praznike domov
TTITLE9=Lepo je biti muzikant
TTITLE10=Slovenija odkod lepote tvoje
TTITLE11=Zakaj pa ne
TTITLE12=Najbolj me boli
TTITLE13=Slovenci
TTITLE14=Samo se en vrcek
TTITLE15=Srecno in nasvidenje
EXTD=
EXTT0=
EXTT1=
EXTT2=
EXTT3=
EXTT4=
EXTT5=
EXTT6=
EXTT7=
EXTT8=
EXTT9=
EXTT10=
EXTT11=
EXTT12=
EXTT13=
EXTT14=
EXTT15=
PLAYORDER=
